<svg xmlns="http://www.w3.org/2000/svg" style="display:none" aria-hidden="true">
  <symbol id="rm-icon-vault" viewBox="0 0 24 24" fill="none" stroke="currentColor" stroke-width="1.75" stroke-linecap="round" stroke-linejoin="round">
    <path d="M4 7h16v14H4z"/><path d="M8 7V5a2 2 0 0 1 2-2h4a2 2 0 0 1 2 2v2"/><path d="M12 12v4M10 14h4"/>
  </symbol>
  <symbol id="rm-icon-tag" viewBox="0 0 24 24">
    <path d="M20 12l-8 8-9-9V3h8l9 9z"/><circle cx="7.5" cy="7.5" r="1.25" fill="currentColor" stroke="none"/>
  </symbol>
  <symbol id="rm-icon-home" viewBox="0 0 24 24">
    <path d="M3 10.5 12 3l9 7.5"/><path d="M5 10v10h14V10"/>
  </symbol>
  <symbol id="rm-icon-cloud" viewBox="0 0 24 24">
    <path d="M18 10a4 4 0 0 0-7.8-1.2A3.5 3.5 0 1 0 6 17h11a3 3 0 0 0 1-6z"/>
  </symbol>
  <symbol id="rm-icon-sync" viewBox="0 0 24 24">
    <path d="M4 12a8 8 0 0 1 13.4-5.9"/><path d="M20 4v6h-6"/><path d="M20 12a8 8 0 0 1-13.4 5.9"/><path d="M4 20v-6h6"/>
  </symbol>
  <symbol id="rm-icon-export" viewBox="0 0 24 24">
    <path d="M12 3v12"/><path d="m7 10 5 5 5-5"/><path d="M5 21h14"/>
  </symbol>
  <symbol id="rm-icon-share" viewBox="0 0 24 24">
    <circle cx="18" cy="5" r="3"/><circle cx="6" cy="12" r="3"/><circle cx="18" cy="19" r="3"/>
    <path d="M8.6 13.5 15.4 17.5M8.6 10.5 15.4 6.5"/>
  </symbol>
  <symbol id="rm-icon-edit" viewBox="0 0 24 24">
    <path d="M12 20h9"/><path d="M16.5 3.5a2.1 2.1 0 0 1 3 3L7 19l-4 1 1-4 12.5-12.5z"/>
  </symbol>
  <symbol id="rm-icon-trash" viewBox="0 0 24 24">
    <path d="M3 6h18"/><path d="M8 6V4h8v2"/><path d="M6 6l1 14h10l1-14"/>
  </symbol>
  <symbol id="rm-icon-user" viewBox="0 0 24 24">
    <circle cx="12" cy="8" r="4"/><path d="M4 20c0-4 3.6-7 8-7s8 3 8 7"/>
  </symbol>
  <symbol id="rm-icon-folder" viewBox="0 0 24 24">
    <path d="M4 7h5l2 2h9v9H4z"/><path d="M4 7V5h6l2 2"/>
  </symbol>
  <symbol id="rm-icon-shield" viewBox="0 0 24 24" fill="none" stroke="currentColor" stroke-width="1.75" stroke-linecap="round" stroke-linejoin="round">
    <path d="M12 3 4 7v6c0 5 3.5 8 8 8s8-3 8-8V7l-8-4z"/>
  </symbol>
  <symbol id="rm-icon-alert" viewBox="0 0 24 24" fill="none" stroke="currentColor" stroke-width="1.75" stroke-linecap="round" stroke-linejoin="round">
    <path d="M12 9v4M12 17h.01"/><path d="M10.3 3.6 2.4 17.2A2 2 0 0 0 4.1 20h15.8a2 2 0 0 0 1.7-2.8L13.7 3.6a2 2 0 0 0-3.4 0z"/>
  </symbol>
  <symbol id="rm-icon-book" viewBox="0 0 24 24" fill="none" stroke="currentColor" stroke-width="1.75" stroke-linecap="round" stroke-linejoin="round">
    <path d="M5 4h9a3 3 0 0 1 3 3v13H8a3 3 0 0 1-3-3V4z"/><path d="M8 4h11v16"/>
  </symbol>
  <symbol id="rm-icon-sun" viewBox="0 0 24 24" fill="none" stroke="currentColor" stroke-width="1.75" stroke-linecap="round">
    <circle cx="12" cy="12" r="4"/><path d="M12 2v2M12 20v2M4.9 4.9l1.4 1.4M17.7 17.7l1.4 1.4M2 12h2M20 12h2M4.9 19.1l1.4-1.4M17.7 6.3l1.4-1.4"/>
  </symbol>
  <symbol id="rm-icon-moon" viewBox="0 0 24 24" fill="none" stroke="currentColor" stroke-width="1.75" stroke-linecap="round" stroke-linejoin="round">
    <path d="M20 14.5A8.5 8.5 0 0 1 9.5 4 7 7 0 1 0 20 14.5z"/>
  </symbol>
  <symbol id="rm-icon-auto" viewBox="0 0 24 24" fill="none" stroke="currentColor" stroke-width="1.75" stroke-linecap="round" stroke-linejoin="round">
    <rect x="3" y="5" width="18" height="12" rx="2"/><path d="M8 9h8M8 13h5"/>
  </symbol>
  <symbol id="rm-icon-user" viewBox="0 0 24 24" fill="none" stroke="currentColor" stroke-width="1.75" stroke-linecap="round" stroke-linejoin="round">
    <circle cx="12" cy="8" r="3.5"/><path d="M5 20c0-3.5 3-6 7-6s7 2.5 7 6"/>
  </symbol>
  <!-- Geometric cross, not a text glyph — a "+" character's centering within
       its own font metrics varies by font/OS rendering (reported off-center
       on both axes); this is symmetric by construction (12,12 is the exact
       center of both strokes in the 24x24 viewBox), so it can't drift. -->
  <symbol id="rm-icon-plus" viewBox="0 0 24 24" fill="none" stroke="currentColor" stroke-width="1.75" stroke-linecap="round">
    <path d="M12 5v14M5 12h14"/>
  </symbol>
  <!-- Hand-drawn, not the mdi-qrcode icon-font glyph — reported off-center
       within its badge on both axes (font-glyph line-box centering can
       drift by rendering engine/OS in ways a geometric shape can't). Finder
       squares placed at identical 2px inset from all three used corners
       (2..9 span) so the shape is as symmetric as a real QR code's
       three-corner-only pattern allows. -->
  <symbol id="rm-icon-qr" viewBox="0 0 24 24" fill="currentColor" stroke="none">
    <path d="M2 2h9v9H2V2zm2 2v5h5V4H4zm1 1h3v3H5V5z"/>
    <path d="M13 2h9v9h-9V2zm2 2v5h5V4h-5zm1 1h3v3h-3V5z"/>
    <path d="M2 13h9v9H2v-9zm2 2v5h5v-5H4zm1 1h3v3H5v-3z"/>
    <path d="M13 13h3v3h-3v-3zM17 13h2v2h-2v-2zM20 13h2v2h-2v-2zM13 17h2v2h-2v-2zM17 17h2v2h-2v-2zM13 20h2v2h-2v-2zM20 17h2v5h-2v-5z"/>
  </symbol>
</svg>
